{
	"asset":{
		"generator":"Khronos glTF Blender I/O v4.2.60",
		"version":"2.0"
	},
	"extensionsUsed":[
		"KHR_materials_specular",
		"KHR_materials_ior"
	],
	"scene":0,
	"scenes":[
		{
			"name":"Scene",
			"nodes":[
				0
			]
		}
	],
	"nodes":[
		{
			"mesh":0,
			"name":"mesh_45_70.nr",
			"rotation":[
				0.7071068286895752,
				0,
				0,
				0.7071068286895752
			],
			"scale":[
				1.934617519378662,
				1.934617519378662,
				1.934617519378662
			]
		}
	],
	"materials":[
		{
			"doubleSided":true,
			"name":"mat_28",
			"pbrMetallicRoughness":{
				"baseColorTexture":{
					"index":0
				},
				"metallicFactor":0,
				"roughnessFactor":0.5
			}
		},
		{
			"doubleSided":true,
			"name":"mat_8",
			"pbrMetallicRoughness":{
				"baseColorTexture":{
					"index":1
				},
				"metallicFactor":0,
				"roughnessFactor":0.5
			}
		},
		{
			"doubleSided":true,
			"name":"mat_4",
			"pbrMetallicRoughness":{
				"baseColorTexture":{
					"index":2
				},
				"metallicFactor":0,
				"roughnessFactor":0.5
			}
		},
		{
			"doubleSided":true,
			"extensions":{
				"KHR_materials_specular":{
					"specularFactor":0
				},
				"KHR_materials_ior":{
					"ior":1.4500000476837158
				}
			},
			"name":"mat_5",
			"pbrMetallicRoughness":{
				"baseColorTexture":{
					"index":3
				},
				"metallicFactor":0,
				"roughnessFactor":0.25
			}
		},
		{
			"doubleSided":true,
			"name":"mat_6",
			"pbrMetallicRoughness":{
				"baseColorTexture":{
					"index":4
				},
				"metallicFactor":0,
				"roughnessFactor":0.5
			}
		},
		{
			"doubleSided":true,
			"name":"mat_7",
			"pbrMetallicRoughness":{
				"baseColorTexture":{
					"index":5
				},
				"metallicFactor":0,
				"roughnessFactor":0.5
			}
		}
	],
	"meshes":[
		{
			"name":"mesh_45_70.nr",
			"primitives":[
				{
					"attributes":{
						"POSITION":0,
						"NORMAL":1,
						"TEXCOORD_0":2
					},
					"indices":3,
					"material":0
				},
				{
					"attributes":{
						"POSITION":4,
						"NORMAL":5,
						"TEXCOORD_0":6
					},
					"indices":7,
					"material":1
				},
				{
					"attributes":{
						"POSITION":8,
						"NORMAL":9,
						"TEXCOORD_0":10
					},
					"indices":11,
					"material":2
				},
				{
					"attributes":{
						"POSITION":12,
						"NORMAL":13,
						"TEXCOORD_0":14
					},
					"indices":15,
					"material":3
				},
				{
					"attributes":{
						"POSITION":16,
						"NORMAL":17,
						"TEXCOORD_0":18
					},
					"indices":19,
					"material":4
				},
				{
					"attributes":{
						"POSITION":20,
						"NORMAL":21,
						"TEXCOORD_0":22
					},
					"indices":23,
					"material":5
				}
			]
		}
	],
	"textures":[
		{
			"sampler":0,
			"source":0
		},
		{
			"sampler":0,
			"source":1
		},
		{
			"sampler":0,
			"source":2
		},
		{
			"sampler":0,
			"source":3
		},
		{
			"sampler":0,
			"source":4
		},
		{
			"sampler":0,
			"source":5
		}
	],
	"images":[
		{
			"mimeType":"image/png",
			"name":"0000000261181F78",
			"uri":"textures/0000000261181F78.png"
		},
		{
			"mimeType":"image/png",
			"name":"000000026196BB78",
			"uri":"textures/000000026196BB78.png"
		},
		{
			"mimeType":"image/png",
			"name":"000000026196DD78",
			"uri":"textures/000000026196DD78.png"
		},
		{
			"mimeType":"image/png",
			"name":"0000000261967738",
			"uri":"textures/0000000261967738.png"
		},
		{
			"mimeType":"image/png",
			"name":"000000026196A8F8",
			"uri":"textures/000000026196A8F8.png"
		},
		{
			"mimeType":"image/png",
			"name":"00000002619693F8",
			"uri":"textures/00000002619693F8.png"
		}
	],
	"accessors":[
		{
			"bufferView":0,
			"componentType":5126,
			"count":242706,
			"max":[
				1.089161992073059,
				8.8956880569458,
				-0.06531800329685211
			],
			"min":[
				-1.403668999671936,
				0.16245999932289124,
				-0.23034800589084625
			],
			"type":"VEC3"
		},
		{
			"bufferView":1,
			"componentType":5126,
			"count":242706,
			"type":"VEC3"
		},
		{
			"bufferView":2,
			"componentType":5126,
			"count":242706,
			"type":"VEC2"
		},
		{
			"bufferView":3,
			"componentType":5125,
			"count":242706,
			"type":"SCALAR"
		},
		{
			"bufferView":4,
			"componentType":5126,
			"count":6358,
			"max":[
				0.00012599999899975955,
				0.17390400171279907,
				0.01345600001513958
			],
			"min":[
				-2.368485927581787,
				-0.15228000283241272,
				-0.5234040021896362
			],
			"type":"VEC3"
		},
		{
			"bufferView":5,
			"componentType":5126,
			"count":6358,
			"type":"VEC3"
		},
		{
			"bufferView":6,
			"componentType":5126,
			"count":6358,
			"type":"VEC2"
		},
		{
			"bufferView":7,
			"componentType":5123,
			"count":15990,
			"type":"SCALAR"
		},
		{
			"bufferView":8,
			"componentType":5126,
			"count":7084,
			"max":[
				2.5689499378204346,
				0.2859109938144684,
				-0.009112999774515629
			],
			"min":[
				0.25102001428604126,
				-0.26140499114990234,
				-0.5842249989509583
			],
			"type":"VEC3"
		},
		{
			"bufferView":9,
			"componentType":5126,
			"count":7084,
			"type":"VEC3"
		},
		{
			"bufferView":10,
			"componentType":5126,
			"count":7084,
			"type":"VEC2"
		},
		{
			"bufferView":11,
			"componentType":5123,
			"count":21054,
			"type":"SCALAR"
		},
		{
			"bufferView":12,
			"componentType":5126,
			"count":3738,
			"max":[
				2.5667970180511475,
				0.2913370132446289,
				0.0076489998027682304
			],
			"min":[
				-0.002099999925121665,
				-0.26673799753189087,
				-0.537854015827179
			],
			"type":"VEC3"
		},
		{
			"bufferView":13,
			"componentType":5126,
			"count":3738,
			"type":"VEC3"
		},
		{
			"bufferView":14,
			"componentType":5126,
			"count":3738,
			"type":"VEC2"
		},
		{
			"bufferView":15,
			"componentType":5123,
			"count":9996,
			"type":"SCALAR"
		},
		{
			"bufferView":16,
			"componentType":5126,
			"count":5714,
			"max":[
				2.774416923522949,
				0.2744170129299164,
				-0.0004659999976865947
			],
			"min":[
				0.02288700081408024,
				-0.2513580024242401,
				-0.5545589923858643
			],
			"type":"VEC3"
		},
		{
			"bufferView":17,
			"componentType":5126,
			"count":5714,
			"type":"VEC3"
		},
		{
			"bufferView":18,
			"componentType":5126,
			"count":5714,
			"type":"VEC2"
		},
		{
			"bufferView":19,
			"componentType":5123,
			"count":13323,
			"type":"SCALAR"
		},
		{
			"bufferView":20,
			"componentType":5126,
			"count":8446,
			"max":[
				-0.0035290000960230827,
				0.20166699588298798,
				-0.007621000055223703
			],
			"min":[
				-2.365633010864258,
				-0.1803469955921173,
				-0.4546160101890564
			],
			"type":"VEC3"
		},
		{
			"bufferView":21,
			"componentType":5126,
			"count":8446,
			"type":"VEC3"
		},
		{
			"bufferView":22,
			"componentType":5126,
			"count":8446,
			"type":"VEC2"
		},
		{
			"bufferView":23,
			"componentType":5123,
			"count":20871,
			"type":"SCALAR"
		}
	],
	"bufferViews":[
		{
			"buffer":0,
			"byteLength":2912472,
			"byteOffset":0,
			"target":34962
		},
		{
			"buffer":0,
			"byteLength":2912472,
			"byteOffset":2912472,
			"target":34962
		},
		{
			"buffer":0,
			"byteLength":1941648,
			"byteOffset":5824944,
			"target":34962
		},
		{
			"buffer":0,
			"byteLength":970824,
			"byteOffset":7766592,
			"target":34963
		},
		{
			"buffer":0,
			"byteLength":76296,
			"byteOffset":8737416,
			"target":34962
		},
		{
			"buffer":0,
			"byteLength":76296,
			"byteOffset":8813712,
			"target":34962
		},
		{
			"buffer":0,
			"byteLength":50864,
			"byteOffset":8890008,
			"target":34962
		},
		{
			"buffer":0,
			"byteLength":31980,
			"byteOffset":8940872,
			"target":34963
		},
		{
			"buffer":0,
			"byteLength":85008,
			"byteOffset":8972852,
			"target":34962
		},
		{
			"buffer":0,
			"byteLength":85008,
			"byteOffset":9057860,
			"target":34962
		},
		{
			"buffer":0,
			"byteLength":56672,
			"byteOffset":9142868,
			"target":34962
		},
		{
			"buffer":0,
			"byteLength":42108,
			"byteOffset":9199540,
			"target":34963
		},
		{
			"buffer":0,
			"byteLength":44856,
			"byteOffset":9241648,
			"target":34962
		},
		{
			"buffer":0,
			"byteLength":44856,
			"byteOffset":9286504,
			"target":34962
		},
		{
			"buffer":0,
			"byteLength":29904,
			"byteOffset":9331360,
			"target":34962
		},
		{
			"buffer":0,
			"byteLength":19992,
			"byteOffset":9361264,
			"target":34963
		},
		{
			"buffer":0,
			"byteLength":68568,
			"byteOffset":9381256,
			"target":34962
		},
		{
			"buffer":0,
			"byteLength":68568,
			"byteOffset":9449824,
			"target":34962
		},
		{
			"buffer":0,
			"byteLength":45712,
			"byteOffset":9518392,
			"target":34962
		},
		{
			"buffer":0,
			"byteLength":26646,
			"byteOffset":9564104,
			"target":34963
		},
		{
			"buffer":0,
			"byteLength":101352,
			"byteOffset":9590752,
			"target":34962
		},
		{
			"buffer":0,
			"byteLength":101352,
			"byteOffset":9692104,
			"target":34962
		},
		{
			"buffer":0,
			"byteLength":67568,
			"byteOffset":9793456,
			"target":34962
		},
		{
			"buffer":0,
			"byteLength":41742,
			"byteOffset":9861024,
			"target":34963
		}
	],
	"samplers":[
		{
			"magFilter":9729,
			"minFilter":9987
		}
	],
	"buffers":[
		{
			"byteLength":9902768,
			"uri":"train.bin"
		}
	]
}
